<svg width="191" height="153" viewBox="0 0 191 153" fill="none" xmlns="http://www.w3.org/2000/svg">
<path fill-rule="evenodd" clip-rule="evenodd" d="M18.9515 38.1316C19.0132 38.0923 19.075 38.0535 19.1367 38.0142C19.2873 38.2339 19.4038 38.504 19.5966 38.6605C19.8068 38.8313 20.1559 38.8271 20.3238 39.0228C20.6747 39.4319 21.1236 39.6149 21.5554 39.8499C21.7022 40.5871 22.3305 40.7924 22.7869 41.1878C23.1446 41.498 23.5144 41.7935 23.8556 42.1242C23.9563 42.2217 23.977 42.4186 24.0343 42.57C23.6627 42.4062 23.4576 42.0359 23.0379 42.1645C22.7264 42.2604 22.7571 41.956 22.6386 41.7884C22.5397 41.6492 22.103 41.6883 22.0905 41.6019C22.0225 41.1237 21.6683 41.0503 21.3818 40.8533C21.0577 40.6308 20.712 40.4025 20.4724 40.0878C20.2304 39.7696 19.917 39.7949 19.6347 39.7034C19.7038 39.5093 19.7701 39.3219 19.8784 39.0181L18.9554 39.0221L18.9515 38.1316ZM125.133 14.0254C125.881 14.4643 126.144 15.268 126.49 16.0054C126.816 16.7006 126.971 17.488 127.267 18.1843C127.599 18.9669 127.769 19.7839 127.802 20.5834C127.837 21.4192 128.354 22.2254 127.969 23.0985C127.857 22.8914 127.73 22.7075 127.657 22.5007C127.608 22.3608 127.655 22.1836 127.623 22.0321C127.508 21.4822 127.378 20.9364 127.254 20.3893C127.12 19.7992 126.86 19.2358 126.937 18.6008C126.361 17.2946 126.139 15.8246 125.391 14.5968C125.284 14.4212 125.218 14.2162 125.133 14.0254ZM12.3288 46.7778C12.1844 46.7944 12.0859 46.8396 12.0482 46.8048C11.4191 46.227 10.7671 45.6737 10.1798 45.047C8.96354 43.748 7.98611 42.2223 7.07854 40.6683C6.66979 39.9685 6.18942 39.2624 5.99794 38.3887C5.91168 37.9948 6.2126 38.0822 6.24942 37.8971C7.0124 39.5009 7.6931 41.1623 8.76858 42.5404C9.8953 43.9843 11.1151 45.3418 12.3288 46.7778ZM20.7992 16.6426C20.5952 16.7894 20.4267 16.9157 20.2533 17.0344C20.0799 17.1535 19.9019 17.2647 19.7261 17.3795C20.0162 17.9556 20.0154 17.9503 19.657 18.2375C19.5171 18.3498 19.3143 18.4895 19.2963 18.6399C19.2249 19.2296 18.8953 18.886 18.743 18.9142C18.7747 18.4883 18.8049 18.0864 18.8347 17.6849C18.362 17.3526 18.816 17.0118 18.8453 16.6835C18.8638 16.479 19.0089 16.2713 19.143 16.1106C19.1691 16.0799 19.4069 16.2624 19.5765 16.3641C19.699 16.0718 19.7959 15.8403 19.9528 15.4658C19.6339 15.6104 19.4679 15.6857 19.3053 15.7595C19.1072 15.234 19.6456 15.4334 19.6872 15.2155C19.7362 14.9576 19.6966 14.6793 19.695 14.3276L21.1835 14.3212C21.253 14.1138 21.291 14.0014 21.3844 13.7234C21.4463 14.6571 21.4463 14.6571 21.0757 15.0135C21.0318 14.8735 20.9875 14.7336 20.9412 14.5861C20.7443 14.7901 20.5695 14.9713 20.4137 15.1325C20.2162 15.0132 20.0957 14.9406 19.8844 14.8129C19.9839 15.5566 20.4731 15.6933 20.7963 15.9668L20.7992 16.6426ZM35.6718 115.325C35.8245 115.652 36.0305 115.967 35.9859 116.018C35.6755 116.371 35.846 116.781 35.8213 117.159C35.7948 117.56 35.7348 117.994 35.8431 118.36C35.9556 118.737 35.44 119.04 35.812 119.382C35.4655 119.688 35.6331 120.111 35.6137 120.487C35.5928 120.888 35.612 121.292 35.6137 121.696C35.6204 123.227 35.6295 124.759 35.6305 126.29C35.6307 126.442 35.5828 126.595 35.5572 126.747C35.4727 126.107 35.2594 125.513 35.216 124.92C35.1115 123.506 35.2186 122.081 34.9665 120.667C34.86 120.07 35.0853 119.431 35.1167 118.833C35.1775 117.665 35.4215 116.56 35.6718 115.325ZM35.5739 143.493C35.2928 143.043 35.0215 142.685 34.8276 142.283C34.1912 140.963 33.1417 139.864 33.0214 138.264C33.0167 138.203 32.9166 138.156 32.8714 138.092C32.5389 137.627 32.3388 137.101 32.3743 136.506C32.4124 135.869 32.2275 135.299 31.9953 134.739C31.8869 134.476 31.8325 134.24 32.1549 133.965C32.301 134.171 32.4923 134.35 32.5694 134.575C32.6894 134.926 32.7057 135.318 32.8116 135.677C33.1055 136.67 33.2815 137.711 33.7919 138.62C33.8612 138.744 33.9392 138.914 33.9147 139.04C33.7901 139.681 34.1113 140.245 34.4046 140.625C35.0107 141.411 35.1565 142.483 35.9289 143.1L35.5739 143.493ZM116.688 12.6089C117.195 12.3171 117.611 12.0772 118.033 11.8346C118.106 11.9052 118.213 12.0103 118.317 12.1114C118.241 12.2079 118.173 12.2916 118.135 12.3397C118.636 12.7663 119.127 13.185 119.612 13.5994C119.572 13.6532 119.437 13.7882 119.455 13.82C119.618 14.1115 119.823 14.3754 119.989 14.6656C120.359 15.315 120.784 15.9562 120.457 16.814C119.976 16.4551 119.713 15.7338 119.023 15.806C119.094 15.6039 119.249 15.366 119.196 15.277C118.947 14.8582 118.703 14.3705 118.336 14.1189C117.963 13.862 117.642 13.4922 117.551 13.1542C117.41 12.6333 117.083 12.7961 116.688 12.6089ZM86.4533 97.1424L86.2969 96.9719C86.3553 96.9149 86.4183 96.8042 86.4713 96.8097C86.8978 96.8522 87.4151 96.8442 87.562 96.6751C88.1412 96.0082 88.8648 96.2672 89.4939 96.3957C90.0765 96.5147 90.6094 96.9266 91.1656 97.2067C91.3415 97.2959 91.516 97.4153 91.7005 97.4429C91.7787 97.4545 91.8746 97.1841 92.0082 97.4048C92.0958 97.5503 92.1673 97.7074 92.3602 98.0809C91.6932 97.7928 91.2583 98.6347 90.7306 98.0028C90.7216 97.9922 90.4707 98.1392 90.4625 98.227C90.4328 98.5504 90.1856 98.5387 90.0708 98.4651C89.5078 98.1061 88.885 98.3142 88.2908 98.2139C88.2537 97.9692 88.2204 97.7476 88.2112 97.686C88.061 97.8517 87.8767 98.0551 87.7245 98.2225C87.767 98.2383 87.8955 98.287 87.8501 98.2699C87.706 98.4293 87.5208 98.6341 87.3618 98.8104C87.2647 98.4312 87.6011 97.7468 86.9035 97.5094C86.5639 97.8191 86.2049 97.8633 85.765 97.6448C86.0166 97.461 86.2352 97.3013 86.4533 97.1424ZM83.4977 101.163C83.7833 101.645 84.2603 101.016 84.5529 101.405C84.8949 101.005 85.3693 101.248 85.7772 101.11C85.9789 101.158 85.5691 100.506 86.0877 100.797C86.4137 100.98 86.8604 100.905 87.3007 100.951C87.3492 100.674 87.3926 100.427 87.4617 100.036C87.5548 100.324 87.6003 100.464 87.6544 100.631C87.9286 100.43 88.1996 100.231 88.5104 100.004C88.45 99.7758 88.3854 99.5313 88.3171 99.2731C88.7418 98.9772 89.2314 98.8376 89.902 99.0981C89.45 99.336 89.0924 99.5238 88.7058 99.7268C88.821 99.9822 88.9198 100.201 89.0187 100.421C89.2172 100.315 89.072 99.6538 89.6008 100.067C89.5116 100.288 89.4171 100.521 89.3243 100.75C89.4078 100.799 89.4769 100.867 89.5051 100.851C89.8675 100.639 90.2241 100.416 90.5823 100.195C90.9197 100.864 91.5356 101.106 92.2692 101.346C92.197 101.121 92.1449 100.958 92.0662 100.713C92.2743 100.569 92.3593 100.116 92.8097 100.166C92.7474 100.543 92.6887 100.897 92.6324 101.238C92.9931 101.413 93.0445 101.519 92.9308 101.774C93.444 102.213 93.5281 101.364 93.9364 101.312C93.9777 101.6 94.0098 101.822 94.0431 102.053C94.2646 102.015 94.3798 101.7 94.6859 101.961C95.1122 102.323 95.6812 102.483 96.1047 102.848C96.5322 103.216 96.8679 103.032 97.2849 102.827C97.3004 103.042 97.3142 103.232 97.3348 103.519C97.9115 103.398 98.3611 103.81 98.8788 103.987C100.115 104.411 101.304 104.97 102.516 105.461C103.599 105.9 104.658 106.409 105.733 106.874C106.618 107.258 107.504 107.642 108.401 107.988C109.621 108.458 110.795 109.057 111.999 109.569C112.939 109.969 113.882 110.423 114.819 110.863C115.128 111.008 115.407 111.305 115.801 111.196C115.884 111.173 116.016 111.231 116.086 111.299C116.936 112.13 118.139 112.126 119.047 112.818C119.099 112.858 119.185 112.875 119.248 112.861C120.165 112.658 120.839 113.318 121.59 113.674C122.784 114.242 124.009 114.692 125.274 115.018C125.541 115.086 125.826 115.129 126.061 115.268C126.283 115.4 126.519 115.301 126.713 115.395C126.963 115.516 127.217 115.684 127.399 115.902C127.656 116.21 127.818 115.577 128.118 115.896C128.337 116.128 128.769 116.098 129.068 116.268C129.556 116.545 130.172 116.43 130.599 116.914C130.687 117.014 130.981 116.991 131.13 116.912C131.4 116.768 131.499 116.72 131.671 117.096C131.765 117.302 132.219 117.345 132.52 117.397C133.476 117.559 134.339 118.158 135.337 118.117C136.114 118.704 137.052 118.639 137.914 118.885C138.112 118.942 138.305 119.026 138.506 119.067C138.881 119.145 139.258 118.964 139.649 119.275C139.924 119.494 140.422 119.134 140.767 119.529C140.833 119.606 141.128 119.532 141.26 119.435C141.607 119.179 141.439 119.589 141.517 119.633C141.642 119.704 141.835 119.624 141.966 119.688C142.563 119.981 143.188 120.101 143.826 120.008C144.954 119.843 146.034 120.307 147.157 120.272C147.496 120.262 147.845 120.522 148.187 120.238C148.826 120.595 149.463 120.081 150.1 120.233C150.366 120.296 150.685 120.533 150.881 120.44C151.401 120.196 151.927 120.262 152.454 120.213C152.977 120.163 153.496 120.054 154.017 119.971C154.086 119.96 154.194 119.977 154.219 119.935C154.443 119.557 154.805 119.779 155.051 119.683C155.612 119.462 156.23 119.597 156.762 119.244C157.16 118.981 157.529 118.767 157.724 118.497C157.798 118.667 157.869 118.83 157.969 119.061C158.773 118.381 159.968 118.482 160.635 117.315L161.454 117.311C161.555 117.11 161.635 116.815 161.716 116.815C162.278 116.816 162.744 116.78 162.7 115.938C162.693 115.808 162.998 115.658 163.366 115.338C163.222 115.805 163.161 116.005 163.052 116.36C163.479 116.046 163.786 115.835 164.077 115.6C164.352 115.379 164.663 115.174 164.862 114.884C165.095 114.545 165.488 114.441 165.69 114.076C165.87 113.748 166.066 113.418 166.313 113.153C166.571 112.875 166.702 112.498 167.048 112.264C167.277 112.109 167.32 111.622 167.449 111.276C167.378 111.193 167.279 111.076 167.183 110.963C167.098 111.047 167.022 111.122 166.846 111.295C166.875 111.043 166.852 110.88 166.914 110.78C167.16 110.383 167.55 110.192 167.931 109.988C168.085 109.905 168.286 109.799 168.34 109.65C168.416 109.441 168.319 109.157 168.397 108.951C168.46 108.784 168.801 108.683 168.798 108.558C168.786 107.927 169.185 107.365 169.032 106.722C169.442 105.694 169.175 104.611 169.238 103.556C169.355 101.594 168.843 99.7483 168.246 97.9518C167.575 95.9267 166.59 94.0724 165.368 92.3623C164.517 91.1713 163.707 89.9522 162.779 88.8236C161.508 87.2796 160.39 85.5927 159.317 83.8758C158.988 83.3508 158.824 82.7289 158.467 82.1996C158.132 81.7017 157.929 81.0764 157.75 80.478C157.588 79.9399 157.523 79.3646 157.443 78.8013C157.378 78.3483 157.56 77.8575 157.223 77.4412C157.156 77.3599 157.214 77.1344 157.248 76.9848C157.29 76.8054 157.413 76.6386 157.421 76.4625C157.533 73.8677 158.81 71.7158 160.612 70.2848C161.711 69.4113 162.889 68.7077 164.012 67.8984C165.596 66.7584 167.279 65.8065 168.854 64.6511C170.079 63.7526 171.377 62.9748 172.641 62.141C174.059 61.2057 175.569 60.4275 176.826 59.2154C177.519 59.0882 177.886 58.3841 178.492 58.0848C179.17 57.7501 179.621 57.063 180.242 56.6093C180.952 56.09 181.542 55.3735 182.187 54.7458C182.557 54.3845 182.839 53.9252 183.33 53.6942C183.581 53.577 183.844 53.2947 183.94 53.0188C184.133 52.4615 184.566 52.1664 184.892 51.7566C186.45 49.7919 187.678 47.6326 188.425 45.1317C188.734 44.098 188.838 43.0013 189.27 42.0127C189.114 41.1362 189.52 40.3193 189.486 39.4507C189.453 38.6056 189.611 37.7219 189.436 36.92C189.175 35.718 189.2 34.4212 188.571 33.325C188.359 31.6664 186.869 28.7495 186.193 27.6309C185.401 26.3213 184.33 25.2793 183.264 24.2737C182.724 23.7648 182.069 23.2678 181.298 23.0831C180.8 22.9638 180.349 22.6872 179.835 22.556C179.363 22.4357 178.997 22.3304 178.537 22.5355C178.368 22.6112 178.109 22.4061 177.888 22.392C177.485 22.3662 177.076 22.3542 176.676 22.4003C176.376 22.4349 176.098 22.7558 175.779 22.4566C175.44 22.8336 175.002 22.5167 174.637 22.6496C174.317 22.7662 174.032 23.0003 173.713 23.1201C173.196 23.313 172.661 23.4493 172.136 23.6219C171.975 23.6749 171.808 23.743 171.671 23.847C170.84 24.4745 169.845 24.6616 168.932 25.0633C167.956 25.4933 166.928 25.798 165.988 26.3196C165.317 26.6924 164.593 26.9244 163.906 27.232C163.183 27.5558 162.489 27.9597 161.753 28.2481C160.242 28.8396 158.847 29.7033 157.406 30.4582C155.565 31.4227 153.727 32.3966 151.896 33.3846C148.69 35.1139 145.495 36.8671 142.285 38.5871C141.493 39.0118 140.681 39.422 139.839 39.6918C139.431 39.8226 139.109 40.106 138.709 40.2133C138.108 40.3742 137.512 40.5582 136.907 40.6983C136.428 40.8095 135.902 40.771 135.465 40.9742C134.694 41.3319 133.86 41.348 133.07 41.6348C132.236 41.9373 131.339 41.5465 130.629 40.8999C130.318 40.6174 130.06 40.2682 129.761 39.9702C128.588 38.8018 128.304 37.4008 128.784 35.7663C128.995 35.0461 129.25 34.3288 129.221 33.5479C129.662 33.1003 129.207 32.3755 129.639 31.9248C129.541 31.0361 129.772 30.1561 129.475 29.2319C129.278 28.6207 129.1 27.9088 129.18 27.1745C129.382 25.3062 129.009 23.4523 128.896 21.5965C128.818 20.3081 128.512 18.9963 128.173 17.7143C127.941 16.8413 127.576 16.0362 127.295 15.2006C126.981 14.2644 126.368 13.4391 125.838 12.6015C124.723 10.8396 123.241 9.50273 121.606 8.35725C120.422 7.52779 119.186 6.80232 117.847 6.33363C117.291 6.13914 116.678 6.07795 116.124 5.91316C115.511 5.73046 114.879 5.91148 114.339 5.69076C113.763 5.45468 113.208 5.45576 112.654 5.51094C111.607 5.61527 110.565 5.79985 109.529 5.99771C108.515 6.19148 107.578 6.65721 106.622 7.05871C105.364 7.58792 104.185 8.26047 103.117 9.16226C102.952 9.30178 102.737 9.3954 102.615 9.56933C101.955 10.5146 101.265 11.4422 100.682 12.4439C99.6949 14.1418 98.5744 15.3529 97.1974 16.5345C96.9741 16.7258 96.8266 17.0222 96.6428 17.2713C96.2794 17.1323 96.0226 16.9605 95.7633 16.9545C95.4615 16.9483 95.2303 16.8012 94.9662 16.7168C94.6952 16.6301 94.3611 16.6258 94.0949 16.721C93.809 16.8233 93.6516 16.3553 93.3469 16.6107C93.2627 16.6807 93.0055 16.5022 92.8276 16.4373C92.6335 16.3668 92.4198 16.3314 92.2506 16.2168C91.991 16.041 91.8954 16.5678 91.6093 16.3433C91.4575 16.2242 91.1992 16.2799 90.9955 16.2262C90.7639 16.1656 90.5441 16.0464 90.3118 15.9977C89.9871 15.9295 89.702 16.1494 89.407 16.1999C89.2012 16.2349 88.9609 15.8435 88.7066 15.775C88.3729 15.6855 88.0356 15.7149 87.6835 15.5581C87.3694 15.4185 86.8183 15.2962 86.6624 15.9896C86.652 16.0349 86.3372 15.9973 86.1317 15.9981C86.2278 15.7769 86.2955 15.6205 86.3668 15.457C86.0077 15.2971 85.7361 14.7865 85.3028 15.2412C85.15 14.9771 85.0153 15.2655 84.9162 15.2526C84.6316 15.2153 84.5236 14.4579 84.0673 15.0004C83.7637 14.8643 83.4677 14.6931 83.1526 14.6106C83.0238 14.577 82.8312 14.8249 82.708 14.7873C82.529 14.7326 82.3888 14.3931 82.176 14.6752C81.9782 14.9372 81.8834 14.5407 81.7879 14.6263C81.696 14.7092 81.6782 14.8906 81.6275 15.0292C80.8813 14.7722 80.8813 14.7722 80.6981 14.051C80.508 14.1511 80.3073 14.2199 80.1493 14.3509C80.0103 14.4655 79.9184 14.6499 79.8187 14.7856C79.6968 14.5667 79.5717 14.341 79.451 14.1242C77.9037 14.5789 77.7879 14.5435 77.2309 13.4306L76.483 13.4338C76.4346 13.5475 76.3665 13.7088 76.2876 13.895C76.1463 13.288 76.1463 13.288 75.5874 12.9556C75.3513 12.8875 75.7747 13.6036 75.2704 13.2626C74.9974 13.0779 74.6855 13.0828 74.371 13.3006C74.2294 13.3988 73.9628 13.3738 73.7877 13.3023C73.44 13.1597 72.9421 13.1663 73.0051 12.4892C73.0163 12.373 72.8322 12.1627 72.5395 12.3866C72.2553 12.6034 71.8151 12.5756 71.3709 12.6706C71.4351 12.4593 71.4969 12.2554 71.5767 11.9917C70.9597 12.2392 70.4503 12.4037 69.9726 11.8452C69.8198 11.6663 69.6027 12.0646 69.2733 11.8474C68.8218 11.5491 68.2158 11.5331 67.6007 11.377C67.5836 11.2573 67.5518 11.0357 67.5222 10.8297C67.4683 10.802 67.4358 10.7684 67.4071 10.7725C67.1419 10.8091 66.1085 10.6402 65.8039 10.5387C65.2797 10.3649 64.7504 10.2084 64.2202 10.0591C61.7396 9.36074 59.3607 8.30498 56.9061 7.53203C55.1623 6.98306 53.4177 6.41768 51.6468 5.95175C50.157 5.55998 48.6569 5.15363 47.1844 4.65226C46.3621 4.37201 45.4868 4.28047 44.6377 4.09258C44.3697 4.03299 44.1119 3.91792 43.8439 3.86143C43.3989 3.76713 42.9489 3.69991 42.5011 3.62114C42.053 3.54238 41.5862 3.52711 41.1612 3.37197C40.2038 3.02269 39.1827 3.07192 38.2184 2.70714C37.6771 2.50239 37.0352 2.68612 36.4375 2.45944C35.9493 2.27486 35.325 2.4288 34.9 2.16412C34.4072 1.85761 33.8862 2.03149 33.3835 1.77868C32.8828 1.52719 32.2095 1.74299 31.6115 1.52208C31.3757 1.43485 31.0134 1.64752 30.7463 1.80123C30.3658 2.02063 30.0357 2.10588 29.685 1.74864C29.5266 1.58702 27.5882 0.745751 27.5145 0.825009C27.1063 1.26538 26.7486 0.870468 26.2577 0.708961C26.3171 0.970795 26.3501 1.12986 26.39 1.28667C26.423 1.41735 26.464 1.54578 26.5235 1.75041C26.0155 1.56991 25.998 1.18549 26.05 0.757759C25.8434 0.889481 25.6747 1.05341 25.6272 1.01814C25.3728 0.832102 25.1745 0.914119 24.9096 1.00884C24.7254 1.07439 24.4668 0.860431 24.2348 0.804231C24.0947 0.770249 23.9382 0.776695 23.7955 0.80481C23.5858 0.846965 23.425 1.27473 23.167 0.909984C22.922 0.563811 22.7113 1.12794 22.5649 0.95961C22.147 0.480703 21.8473 1.03812 21.4971 1.07512C21.2004 1.10656 20.8131 1.16856 20.7351 1.65494C20.7277 1.70287 20.463 1.77365 20.3835 1.719C20.2302 1.61368 20.1023 1.42532 19.9235 1.60969C19.4363 2.11382 18.715 2.18303 18.244 2.71946C18.1305 2.84901 17.9467 2.99615 17.8043 2.98524C17.4753 2.9605 17.3414 3.22096 17.1962 3.4216C16.9904 3.7072 16.7726 3.95871 16.5066 4.17938C16.2265 4.41121 16.0462 4.71311 15.6038 4.74607C15.2658 4.77105 15.0902 5.31551 14.6819 5.48181C13.5259 5.95292 12.46 6.67465 11.4601 7.42713C10.484 8.16133 9.45506 8.83988 8.56422 9.73735C8.01368 10.2923 7.42986 10.819 6.89198 11.3974C6.02917 12.3254 5.44774 13.4987 4.6791 14.4976C3.61039 15.8859 3.00144 17.5192 2.2928 19.1099C1.65787 20.5349 1.27487 22.0372 0.951533 23.5846C0.753403 24.534 0.783733 25.5543 0.341834 26.4423C0.326191 26.4734 0.334494 26.523 0.341133 26.562C0.509522 27.5183 0.0915545 28.4182 0.125596 29.3657C0.15875 30.2915 0.1195 31.2208 0.153859 32.1466C0.168019 32.5186 0.315216 32.8825 0.363365 33.2562C0.406917 33.5974 0.378379 33.9195 0.567135 34.2606C0.709016 34.5177 0.63427 34.9091 0.789043 35.2464C0.880913 35.4455 0.656385 35.8053 0.607094 36.0991C0.553088 36.4244 0.576266 36.7298 0.983282 36.7507C1.06984 37.4026 1.56514 37.914 1.65179 38.4924C1.82299 39.6309 2.63973 40.3901 2.87573 41.4557C3.37546 41.775 3.26253 42.5028 3.72055 42.903C4.07867 43.2159 4.24415 43.7833 4.53117 44.2077C4.84791 44.6765 5.20695 45.1108 5.54465 45.5626C5.61016 45.6501 5.72514 45.7662 5.70929 45.8426C5.5667 46.5417 6.06835 46.8362 6.41303 47.2218C6.98006 47.8549 7.53945 48.499 8.13987 49.0924C9.16523 50.1053 10.2054 51.095 11.3748 51.9215C12.1437 52.4645 12.7689 53.2715 13.5646 53.7466C14.4495 54.2753 15.2492 54.9282 16.1023 55.4979C17.1842 56.2201 18.3023 56.8715 19.4103 57.5435C20.5779 58.2519 21.788 58.8662 22.9467 59.5862C23.6342 60.0134 24.2689 60.5779 24.9955 60.8856C25.9997 61.3105 26.8542 62.0052 27.7857 62.552C28.941 63.2303 29.999 64.1091 31.0962 64.9057C32.04 65.5908 32.7787 66.5264 33.5942 67.3694C33.9277 67.7143 34.217 68.0945 34.659 68.3405C35.0482 68.5578 35.3365 69.0049 35.5441 69.4848C35.9535 70.4294 36.3678 71.373 36.6282 72.3786C36.7335 72.7857 36.6736 73.2409 36.7374 73.6655C36.7861 73.9895 36.4809 74.5083 37.103 74.5832C37.1414 74.5879 37.1713 74.8654 37.1728 75.0166C37.1834 75.8627 37.1717 76.7098 37.1915 77.5559C37.2044 78.1053 36.8065 78.5802 36.9736 79.1498C36.5243 79.6373 36.8622 80.3259 36.5767 80.9085C36.3281 81.4156 36.4392 82.1207 36.3168 82.7199C36.16 83.4856 35.7967 84.226 35.7628 84.9907C35.7227 85.9 35.2875 86.6491 35.1634 87.5197C35.0504 88.314 34.5661 89.0448 34.4523 89.8395C34.3007 90.8957 33.9883 91.8868 33.7359 92.9039C33.7101 93.0091 33.8539 93.1646 33.9286 93.3168C33.824 93.3568 33.696 93.4057 33.5357 93.4667C33.5038 94.2127 33.3751 94.9503 33.1242 95.669C33.0263 95.9492 33.1128 96.3014 33.0709 96.6134C33.0313 96.908 32.8994 97.1893 32.87 97.4839C32.8359 97.829 32.8441 98.1536 32.6615 98.483C32.5082 98.7587 32.4504 99.1296 32.4421 99.4614C32.4328 99.8215 32.3812 100.147 32.2114 100.45C32.052 100.733 32.6391 101.036 32.1751 101.325C31.8504 101.528 32.1225 101.967 31.9828 102.195C31.6502 102.739 31.7747 103.378 31.6049 103.957C31.4961 104.33 31.4207 104.764 31.3582 105.176C31.2965 105.581 31.4594 106.027 31.1677 106.39C31.525 106.596 31.1422 106.751 31.13 106.93C31.1175 107.114 31.0272 107.29 31.007 107.474C30.9829 107.69 30.9911 107.911 30.9977 108.128C31.0005 108.214 31.0764 108.355 31.051 108.377C30.4715 108.885 30.782 109.692 30.5105 110.314C30.3859 110.598 30.3948 110.969 30.3097 111.303C30.192 111.767 29.9481 112.227 30.0406 112.769C30.0796 112.995 29.9661 113.306 29.8306 113.503C29.5879 113.857 29.6118 114.239 29.6312 114.622C29.6604 115.203 29.5657 115.176 29.4422 115.803C29.3247 116.399 28.9965 116.933 28.9943 117.532C28.9918 118.074 28.3926 118.606 28.9476 119.17C28.9529 119.176 28.7855 119.386 28.6982 119.5C28.4714 119.795 28.5025 120.168 28.4162 120.505C28.3056 120.935 28.2999 121.292 28.5268 121.669C28.4 121.701 28.3002 121.727 28.2 121.753C28.1738 121.781 28.1286 121.807 28.1251 121.839C28.048 122.529 27.9823 123.222 27.8991 123.912C27.8257 124.523 28.0999 125.169 27.7008 125.758C27.5706 125.95 28.0564 126.225 27.7111 126.54C27.6354 126.609 27.8001 126.995 27.8545 127.236C27.7309 127.284 27.6033 127.333 27.481 127.381C27.5163 128.074 28.2141 128.639 27.738 129.385C28.0793 129.538 28.6305 129.424 28.5808 130.186C28.3822 130.08 28.2415 130.005 28.111 129.935C28.0364 129.997 27.9339 130.045 27.9361 130.087C27.951 130.357 27.9878 130.625 28.0184 130.894C28.0285 130.98 28.0636 131.135 28.0507 131.14C27.4853 131.351 28.0815 131.903 27.7498 132.281C27.4476 132.626 27.8548 133.171 27.9796 133.585C28.0945 133.965 28.1361 134.324 28.1746 134.705C28.2283 135.239 28.2013 135.842 28.429 136.278C28.67 136.738 28.4848 137.218 28.6831 137.62C28.8843 138.027 29.1375 138.399 29.0697 138.898C29.5895 139.544 29.5494 140.459 29.9706 141.147C30.0533 141.282 30.2477 141.334 30.3986 141.429L30.4038 142.624C30.6966 142.812 31.0909 142.883 31.0903 143.381C31.6264 143.694 30.929 144.052 31.1299 144.413C31.2194 144.422 31.3592 144.482 31.4128 144.431C31.5534 144.298 31.6337 144.167 31.8183 144.396C31.9477 144.557 31.8706 144.602 31.8195 144.753C31.6857 145.149 31.9854 145.702 32.0506 145.629C32.4616 145.17 32.503 145.761 32.6968 145.863C32.7726 145.903 32.8607 146.066 32.8428 146.146C32.6742 146.895 33.2312 147.079 33.6348 147.337C34.7896 148.074 34.7972 148.06 35.7285 148.095C35.7295 148.323 35.7592 148.56 35.725 148.786C35.6735 149.123 35.8318 149.34 36.0504 149.484C36.7266 149.926 37.3989 150.387 38.1108 150.75C38.7862 151.096 39.4933 151.478 40.2165 151.575C41.2964 151.72 42.3078 152.241 43.4303 152.156C44.4918 152.076 45.5619 152.119 46.6282 152.129C47.7636 152.139 48.8262 151.759 49.9119 151.475C50.6516 151.281 51.3499 151.027 52.0405 150.675C52.4691 150.456 52.9668 150.309 53.4833 150.398C54.1731 150.516 54.787 150.205 55.3924 149.908C57.0473 149.097 58.2872 148.098 59.6876 146.978C60.4031 146.406 61.1443 145.89 61.7609 145.172C62.7779 143.986 63.4776 142.683 64.1766 140.82C64.5381 139.856 65.0336 138.938 65.5549 138.061C66.5652 136.362 67.2009 134.732 68.1332 132.58C68.9105 130.785 69.4759 128.912 70.133 127.078C70.4782 126.114 70.868 125.155 71.1651 124.159C71.4597 123.171 71.7693 122.189 72.2993 121.282C72.6153 120.74 72.8036 120.056 73.1248 119.491C73.7241 118.437 74.1605 117.3 74.6378 116.184C75.2156 114.834 75.8522 113.502 76.3498 112.125C76.7938 110.896 77.4987 109.837 77.9399 108.613C78.3768 107.403 78.9778 106.262 79.522 105.1C80.0422 103.988 80.7266 103.053 81.8194 102.546C82.4758 102.241 83.0563 101.8 83.4977 101.163Z" fill="#D5BD69"/>
</svg>
