<svg width="55" height="66" viewBox="0 0 55 66" fill="none" xmlns="http://www.w3.org/2000/svg">
<path fill-rule="evenodd" clip-rule="evenodd" d="M38.3812 4.05088C38.2654 4.17938 38.1688 4.28583 38.0466 4.42098C37.4134 4.34628 36.7593 4.23811 36.1018 4.20038C35.4515 4.16344 34.7972 4.19735 34.1448 4.20019C33.6299 4.20242 33.0659 4.06115 32.6126 4.24537C32.1088 4.45052 31.5567 4.2425 31.1602 4.47867C30.6998 4.75321 30.1423 4.4454 29.768 4.89727C28.9875 4.81658 28.3422 5.34708 27.6223 5.47447C26.8125 5.61757 26.0872 5.967 25.3446 6.28088C24.4867 6.64373 23.6005 6.92013 22.7786 7.39838C22.1929 7.73892 21.5609 7.99889 20.9531 8.28733C19.8718 8.80067 18.943 9.54117 17.999 10.2664C17.482 10.663 17.0338 11.1661 16.5534 11.6193C16.0992 12.0487 15.5912 12.4253 15.197 12.9125C13.8032 14.6367 12.3234 16.2958 11.4237 18.4283C10.8015 19.0457 10.5537 19.9282 10.2432 20.7174C9.93267 21.5065 9.46935 22.257 9.39126 23.152C8.70907 24.3964 8.44285 25.8174 8.07247 27.1776C7.78055 28.2488 7.34578 29.309 7.36254 30.4703C6.99037 30.8104 7.20577 31.3429 7.0044 31.7787C6.80005 32.2211 6.67216 32.7867 6.7468 33.3559C6.81753 33.8961 6.46602 34.3827 6.54257 34.9585C6.60781 35.4524 6.54007 35.946 6.38851 36.4553C6.24142 36.948 6.41132 37.53 6.17786 38.0559C6.12136 38.1829 6.33287 38.43 6.35566 38.6308C6.37137 38.7699 6.19287 38.9898 6.24079 39.0613C6.52104 39.478 6.28804 39.9359 6.37568 40.2826C6.24052 40.5632 6.1353 40.7807 5.98291 41.0966C6.10676 41.1681 6.27796 41.2676 6.43211 41.3568C6.43859 42.8467 6.44308 44.2288 6.45665 45.6106C6.45726 45.664 6.54816 45.7166 6.59826 45.7711C6.53212 45.8513 6.46598 45.932 6.39983 46.0126C6.5726 46.7326 6.83327 47.4252 6.83397 48.1952C6.83429 48.6156 6.9374 49.0431 7.03817 49.4548C7.24702 50.3063 7.41589 51.1742 7.5647 52.0334C7.73288 53.0027 8.20289 53.7898 8.57226 54.6327C8.9363 55.4649 9.43629 56.1959 10.2156 56.7028C11.2909 57.4019 12.3433 58.1495 13.478 58.7215C14.0202 58.9946 14.615 59.1962 15.1564 59.4557C15.7235 59.727 16.327 59.8432 16.8937 60.0234C17.398 60.1832 17.9892 60.2399 18.5463 60.2921C19.0047 60.3353 19.4519 60.2977 19.9129 60.4929C20.3251 60.6671 20.8496 60.3592 21.2635 60.7364C21.2836 60.7549 21.3303 60.7385 21.3647 60.7384C23.0564 60.7182 24.7488 61.2087 26.4261 60.9086C27.5601 60.7061 28.755 60.6864 29.8106 60.0671C31.4485 59.8343 32.862 58.8436 34.444 58.4221C34.8757 57.9695 35.489 57.9163 35.9806 57.5787C36.4616 57.2481 37.0199 57.0564 37.5196 56.7548C39.2857 55.6888 41.0606 54.6398 42.7463 53.4213C43.0747 53.1838 43.3071 52.8406 43.6791 52.6323C44.1404 52.3739 44.5295 51.9373 44.9063 51.5294C45.2583 51.1476 45.6311 50.7951 45.8748 50.28C46.1144 49.7728 46.5746 49.4229 46.8967 48.9427C47.6478 47.8227 48.4436 46.7266 48.9386 45.4524C49.2465 44.6608 49.541 43.8423 49.8026 43.0198C50.055 42.2259 50.1401 41.3892 50.4408 40.6038C50.6739 39.9964 50.6129 39.2515 50.6715 38.5666C50.7431 37.7321 50.8309 36.8979 50.8608 36.0615C50.8915 35.1969 50.9077 34.3258 50.8439 33.4653C50.7805 32.6136 50.6661 31.7658 50.4849 30.9241C50.3816 30.4461 50.2649 29.9454 50.2371 29.4547C50.1941 28.6862 49.9033 28.0239 49.6393 27.3461C49.1151 25.9993 48.3574 24.8271 47.5506 23.653C46.6598 22.3567 45.3851 21.5678 44.4358 20.372C44.0392 19.8729 43.4724 19.5109 42.9352 19.1802C42.5265 18.9281 42.0329 18.8785 41.5914 18.6493C41.0499 18.3683 40.4388 18.25 39.8588 18.0574C39.7991 18.0378 39.7485 17.9676 39.6903 17.9617C38.9634 17.8836 38.2362 17.806 37.5083 17.7454C37.2351 17.7226 36.9539 17.7093 36.6859 17.7556C36.4609 17.7947 36.26 17.3892 36.0378 17.7298C35.6746 17.4261 35.3437 17.8811 34.9605 17.7747C34.6239 17.6813 34.2682 17.8075 33.9072 17.9483C33.4946 18.1091 32.9933 17.9357 32.5588 18.2076C32.2898 18.3761 31.9839 18.4736 31.6765 18.6112C31.5908 18.5179 31.4689 18.3851 31.3425 18.2481C31.3003 18.2831 31.2181 18.3216 31.2206 18.3534C31.2452 18.717 31.1408 18.9527 30.8182 19.138C30.2499 19.4648 29.7167 19.8648 29.1362 20.2558C29.0369 20.1941 28.899 20.109 28.6471 19.9527C28.6078 20.1272 28.563 20.3258 28.5296 20.4747C28.4808 20.4488 28.6126 20.5182 28.7765 20.6041C28.279 21.1443 27.786 21.6625 27.3112 22.1998C26.1874 23.4713 25.2499 24.8944 24.4882 26.4552C24.0976 27.2559 23.6779 28.0438 23.3426 28.872C22.9311 29.8878 22.5078 30.8987 22.1898 31.9625C21.9615 32.7256 21.7109 33.4772 21.497 34.2473C21.3642 34.7255 21.4449 35.2127 21.2355 35.7065C20.9853 36.2966 21.1391 37.0767 20.9746 37.731C20.7826 38.4952 20.8176 39.251 20.7895 40.0161C20.7811 40.2515 20.6635 40.4819 20.5931 40.7241C20.657 40.8021 20.7242 40.8838 20.7922 40.9667C20.7523 41.0166 20.7095 41.0698 20.6753 41.113C20.7201 41.4194 20.7996 41.7164 20.8009 42.0142C20.8043 42.8861 21.016 43.7086 21.2278 44.5365C21.5614 45.8382 22.3876 46.6887 23.4678 47.1487C24.7346 47.6879 26.0728 47.9385 27.4423 48.1168C28.559 48.2619 29.6595 48.1801 30.7515 48.2868C31.262 47.8857 31.8693 47.7405 32.3925 47.3916C32.5681 47.2744 32.7952 47.208 32.9766 47.0395C33.7337 46.3328 34.5626 45.7295 35.2968 44.9799C35.6251 44.6446 36.0092 44.3335 36.3439 43.9829C37.3969 42.8811 38.0514 41.5097 38.5179 40.0203C38.6733 39.525 38.7025 38.9533 38.95 38.5293C39.2369 38.0377 38.9343 37.4218 39.3326 37.0038C39.397 36.0939 39.5392 35.1796 39.5001 34.2743C39.4728 33.6336 39.2592 32.9983 39.3085 32.3342C39.3196 32.1879 38.6008 30.4046 38.4422 30.2487C38.0977 29.9097 37.7242 29.6065 37.3632 29.2883C37.0074 29.5019 36.7199 28.975 36.2892 29.2345C35.9339 29.4486 35.3938 29.4894 34.9954 29.3694C34.5453 29.2338 34.8534 29.6268 34.7026 29.7062C33.4843 30.3473 32.7104 31.6057 31.6146 32.4231C31.5611 32.4627 31.5255 32.5316 31.5803 32.4626C31.4555 32.9469 31.452 33.3612 31.265 33.6101C30.7177 34.3394 30.599 35.2768 30.1804 36.0627C30.0882 36.2363 30.0847 36.4728 30.0599 36.6825C30.006 37.1438 30.1955 37.6383 29.8676 38.0672C29.8 38.1553 29.8326 38.3664 29.8646 38.5083C29.9555 38.9097 30.0702 39.3044 30.1946 39.774C31.5344 38.7653 32.0206 37.0977 32.9869 35.8567L33.738 35.8534C33.5918 36.2111 33.4591 36.5356 33.2404 37.0696C33.5545 36.9208 33.707 36.8891 33.8085 36.7925C34.0407 36.5708 34.2481 36.3172 34.4775 36.0635C34.7841 36.2863 34.9497 36.6621 35.2365 36.923C35.5042 37.1658 35.5928 37.6463 35.8454 38.2135C35.8589 39.056 35.2146 39.8984 35.0217 40.8929C34.6512 41.1633 34.2325 41.3242 34.1711 41.9673C34.1346 42.3485 33.7896 42.6938 33.634 42.9658C33.1937 43.1831 32.8358 42.9908 32.4674 43.2347C31.9513 43.5766 31.3952 42.9735 30.8278 43.0745C30.024 42.4964 29.0691 42.2769 28.2486 41.6973C27.6317 41.2613 27.2456 40.6641 26.8297 40.0765C26.5416 39.6693 26.4029 39.1393 26.1475 38.6993C25.8947 38.2647 25.8925 37.7477 25.7779 37.2901C25.6026 36.5884 25.6164 35.7732 25.7493 35.0502C25.9379 34.0288 26.103 32.9876 26.5257 32.0223C27.0532 30.8176 27.7232 29.7286 28.5608 28.7686C29.345 27.8697 30.1341 26.9852 31.1336 26.338C31.7812 25.9189 32.506 25.7845 33.1687 25.4461C33.479 25.2874 33.7678 25.6829 34.1435 25.4676C34.4138 25.3131 34.8188 25.4054 35.159 25.4412C35.5116 25.479 35.9849 25.4508 36.1827 25.6811C36.6247 26.1957 37.39 25.8979 37.7298 26.5393C38.3864 26.5376 38.7933 27.0685 39.2318 27.4622C40.3518 28.4684 41.5208 29.4475 42.0569 31.0179C42.135 31.2466 42.2051 31.4778 42.2783 31.7053C42.3732 31.7281 42.467 31.7505 42.5513 31.7708C42.7067 32.3964 42.8574 33.0051 43.0124 33.629C42.9869 33.6656 42.9463 33.7225 42.8723 33.8272C42.9983 34.0441 43.138 34.285 43.3169 34.5932C43.0417 34.642 42.853 34.676 42.6465 34.7129C42.6406 34.826 42.6353 34.9279 42.628 35.0734L43.0882 35.0714C43.1554 35.1386 43.1804 35.1637 43.2054 35.1885C42.9211 35.4759 43.3842 35.7349 43.2399 35.9994C42.9019 36.6188 43.1141 37.2964 43.0383 37.9412C42.9808 38.4294 42.8881 38.9206 42.7458 39.3864C42.6556 39.6821 42.4455 39.9332 42.291 40.2014C42.7183 40.8859 41.9267 41.5633 42.1997 42.3027C42.1234 42.3204 42.0298 42.3424 41.9253 42.3668C41.723 42.8561 41.5129 43.364 41.2149 44.0839L41.2182 44.8402C40.9919 45.446 40.7324 45.8969 40.2046 46.0641L40.2068 46.5623C39.6431 47.1741 39.1006 47.8669 38.4546 48.4119C38.1983 48.6284 37.9473 48.864 37.688 49.0817C37.4557 49.2774 37.1824 49.4252 36.9813 49.6518C36.3095 50.4078 35.4561 50.8601 34.622 51.3177C33.4536 51.959 31.7816 52.2487 30.4919 52.1002C30.022 52.0464 29.5659 51.845 29.0488 51.6952C28.9368 51.7433 28.7351 51.9227 28.586 51.8799C26.9477 51.4107 25.2633 51.196 23.6703 50.4478C22.4835 49.8901 21.3326 49.2767 20.3057 48.4668C19.5569 47.8769 18.8902 47.1081 18.3672 46.2157C17.7593 45.1783 17.1448 44.1571 16.8324 42.9568C16.8066 42.8588 16.7085 42.7792 16.6937 42.6824C16.6124 42.1509 16.4979 41.6183 16.4854 41.0836C16.4514 39.6158 16.4019 38.1431 16.4802 36.6802C16.5256 35.8384 16.6893 34.9873 16.8156 34.1459C16.9375 33.3356 17.1075 32.5421 17.2438 31.7383C17.3974 30.8322 17.7115 29.9904 17.979 29.1323C18.194 28.4438 18.3854 27.7152 18.708 27.0983C19.2644 26.0334 19.6296 24.8745 20.2318 23.8223C20.8088 22.8137 21.3468 21.7676 21.9557 20.7746C22.2655 20.2683 22.5719 19.7447 22.9577 19.3122C23.9036 18.2515 24.7815 17.1015 25.9128 16.2603C26.8915 15.5329 27.848 14.8039 28.9983 14.3445C30.1433 13.8876 31.2722 13.5484 32.4793 13.462C32.6942 13.4466 32.9029 13.3181 33.1251 13.238C33.196 13.3056 33.2719 13.377 33.3493 13.4504C33.3933 13.4096 33.4415 13.3655 33.4938 13.3176C33.6916 13.3656 33.9115 13.3754 34.0914 13.4732C34.341 13.6092 34.4701 13.1543 34.7817 13.3932C34.9909 13.5538 35.3724 13.4362 35.6759 13.4597C35.9336 13.4793 36.2311 13.3347 36.4255 13.654C36.7189 13.1739 36.9899 13.7431 37.2753 13.6768C37.6519 13.5891 37.9803 13.7802 38.3257 13.8918C38.6341 13.9911 38.9547 14.0448 39.2697 14.1188C39.5851 14.1928 39.9357 14.1942 40.2096 14.3533C41.3652 15.0243 42.7473 15.2275 43.6714 16.3488C44.369 16.3234 44.804 16.8803 45.3002 17.2472C47.0767 18.5616 48.5687 20.241 50.0246 21.9407C51.4501 23.605 52.6431 25.487 53.3883 27.6297C53.7839 28.7662 54.2305 29.8963 54.3817 31.1453C54.4785 31.9464 54.6951 32.7482 54.7595 33.5597C54.8242 34.3821 54.7799 35.2148 54.7835 36.0432C54.7861 36.6454 54.794 37.2481 54.7902 37.8503C54.7864 38.4621 54.8336 39.0555 54.484 39.6357C54.283 39.9691 54.3351 40.4863 54.2731 40.921C54.6689 41.1575 53.9254 41.584 54.3752 41.7979C54.0855 42.4225 53.7961 43.0451 53.5045 43.6739C53.4059 43.5765 53.339 43.4865 53.253 43.4351C53.2026 43.4051 53.1216 43.4365 53.0181 43.442C52.9494 43.7202 53.2449 43.7454 53.3417 44.015L53.3457 44.9346C53.2543 45.0356 53.1336 45.1695 52.9874 45.3313C53.036 45.4002 53.0881 45.4733 53.1474 45.5567C52.7143 46.0383 52.6629 46.7372 52.3616 47.3044C52.0202 47.9466 51.7164 48.6173 51.2371 49.0816C50.9023 48.9853 50.636 48.909 50.3697 48.8327C50.3533 48.8871 50.3369 48.9414 50.3205 48.9957C50.4443 49.054 50.5681 49.1127 50.7657 49.2059C50.5797 49.3471 50.4178 49.4696 50.2562 49.5921C50.281 49.6429 50.3058 49.6937 50.3306 49.7442C50.4925 49.7037 50.6548 49.6636 50.8793 49.6072C50.8954 49.7425 50.9181 49.9334 50.942 50.1333C50.7938 50.1936 50.675 50.2418 50.5015 50.3121C50.5456 50.5344 50.5908 50.7653 50.658 51.1071C50.4206 51.2569 50.1008 51.46 49.7334 51.6923C49.5828 52.0694 49.4045 52.5151 49.2266 52.9599C49.2573 52.98 49.2884 53.0002 49.3195 53.0195C48.5735 53.8446 47.88 54.7381 47.0686 55.4764C46.0947 56.3625 45.046 57.1599 43.9839 57.9188C42.4781 58.9952 40.9358 60.0101 39.395 61.0262C39.2123 61.1467 38.9432 61.1093 38.6676 61.1528C38.3279 61.8377 37.5765 61.9333 36.9967 62.3103C36.4553 62.6622 35.8427 62.884 35.2361 63.1753C35.1682 63.0274 35.0999 62.8785 35.0305 62.7272C34.6952 63.6354 33.8309 63.6524 33.1513 64.0207C33.06 63.9652 32.9278 63.885 32.7456 63.7735C32.6924 63.9659 32.6574 64.0945 32.6221 64.2222C32.598 64.2493 32.5654 64.3041 32.5507 64.2983C32.1265 64.1477 31.77 64.4446 31.4059 64.5568C29.6636 65.097 27.8834 64.9329 26.1142 65.0288C24.7544 65.1022 23.4234 64.8392 22.0781 64.7684C21.5665 64.7416 21.0094 64.6894 20.5236 64.5407C20.022 64.3872 19.5244 64.4751 19.0573 64.3412C18.4653 64.1719 17.8734 64.0221 17.2769 63.8751C16.6276 63.7156 15.9832 63.5034 15.3516 63.2552C14.7226 63.0077 14.0731 62.8229 13.4449 62.5746C12.8182 62.3272 12.215 62.0084 11.5864 61.7675C9.75176 61.0647 8.20554 59.7891 6.54021 58.7496C5.77972 57.8011 4.87186 57.0185 4.14816 56.0122C3.57763 55.2198 3.08698 54.3757 2.6088 53.5336C2.09293 52.6251 1.75257 51.5923 1.47452 50.5522C1.18227 49.4608 0.911916 48.3655 0.833653 47.2223C0.812277 46.9113 0.691958 46.6094 0.633562 46.2994C0.574404 45.9878 0.755661 45.62 0.440976 45.3646C0.405337 45.3358 0.4245 45.2247 0.420029 45.1522C0.345678 43.866 0.243752 42.5807 0.204531 41.2932C0.164428 39.9766 0.180609 38.6581 0.187727 37.3405C0.18871 37.2191 0.30304 37.0989 0.364852 36.9781C0.30598 36.9063 0.238754 36.8246 0.158613 36.7267C0.23221 36.5359 0.388114 36.3327 0.367313 36.1538C0.23778 35.036 0.61961 33.9636 0.578147 32.8558C0.567863 32.5759 0.463292 32.2466 0.759718 32.0386C0.438282 31.7948 0.807185 31.5729 0.785719 31.3278C0.761098 31.0524 0.734223 30.78 0.903694 30.4818C1.12115 30.0986 0.83271 29.5357 1.17442 29.1428C1.17376 27.9474 1.67842 26.8853 1.9066 25.7527C2.08153 24.885 2.37541 24.0917 2.6919 23.2835C2.95271 22.6184 3.09578 21.8954 3.3289 21.2039C3.88167 19.565 4.56358 17.9938 5.26178 16.4359C5.72651 15.3996 6.4268 14.4952 6.89601 13.4477C7.51607 13.1215 7.63586 12.3452 8.08325 11.8387C8.54078 11.3215 8.95076 10.7282 9.4196 10.2039C9.9001 9.66663 10.3677 9.11329 10.8729 8.60452C11.6974 7.77294 12.6389 7.08955 13.4832 6.29434C14.3362 5.4908 15.3241 4.95384 16.25 4.31069C17.1234 3.70382 18.1281 3.28276 19.1209 2.93838C19.82 2.69634 20.4719 2.32363 21.1981 2.1494C22.1001 1.93341 22.9743 1.58168 23.867 1.31395C24.2413 1.20131 24.7275 1.28287 24.9928 1.04645C25.3899 0.693061 25.8614 1.04971 26.2196 0.713064C26.5323 0.419691 27.0438 0.853211 27.3346 0.391351C27.3459 0.373491 27.4011 0.383192 27.4343 0.38926C28.2836 0.552493 29.0803 0.105417 29.9241 0.143169C30.7468 0.179771 31.5949 0.00915975 32.3909 0.17221C33.6758 0.435444 35.0133 0.444542 36.2124 1.22798C37.1153 1.81802 37.8805 2.46624 38.2883 3.54264C38.3498 3.70474 38.3537 3.89236 38.3812 4.05088Z" fill="#0F233F"/>
</svg>
